<mxfile host="Electron" modified="2023-10-26T07:17:14.270Z" agent="Mozilla/5.0 (Windows NT 10.0; Win64; x64) AppleWebKit/537.36 (KHTML, like Gecko) draw.io/22.0.2 Chrome/114.0.5735.289 Electron/25.8.4 Safari/537.36" etag="IYZMC0sF8XTn2hv7nW0C" version="22.0.2" type="device">
  <diagram id="tjcEpFWjGVXVro5VgTkC" name="Seite-1">
    <mxGraphModel dx="1062" dy="708" grid="1" gridSize="10" guides="1" tooltips="1" connect="1" arrows="1" fold="1" page="1" pageScale="1" pageWidth="827" pageHeight="1169" math="0" shadow="0">
      <root>
        <mxCell id="0" />
        <mxCell id="1" parent="0" />
        <mxCell id="7xE9MWdrDau_G4mgAYLp-1" value="ControllerServer.py" style="html=1;fillColor=#dae8fc;strokeColor=#6c8ebf;" parent="1" vertex="1">
          <mxGeometry x="20" y="320" width="120" height="50" as="geometry" />
        </mxCell>
        <mxCell id="7xE9MWdrDau_G4mgAYLp-3" value="AdapterBGRPC.py" style="html=1;fillColor=#e1d5e7;strokeColor=#9673a6;" parent="1" vertex="1">
          <mxGeometry x="1100" y="520" width="120" height="50" as="geometry" />
        </mxCell>
        <mxCell id="7xE9MWdrDau_G4mgAYLp-4" value="ControllerBGRPC.py" style="html=1;fillColor=#e1d5e7;strokeColor=#9673a6;" parent="1" vertex="1">
          <mxGeometry x="200" y="420" width="120" height="50" as="geometry" />
        </mxCell>
        <mxCell id="7xE9MWdrDau_G4mgAYLp-5" value="Container.py" style="html=1;fillColor=#FFFFFF;strokeColor=#33FF33;" parent="1" vertex="1">
          <mxGeometry x="20" y="220" width="120" height="50" as="geometry" />
        </mxCell>
        <mxCell id="7xE9MWdrDau_G4mgAYLp-6" value="" style="endArrow=open;endSize=12;dashed=1;html=1;rounded=0;" parent="1" source="7xE9MWdrDau_G4mgAYLp-1" target="7xE9MWdrDau_G4mgAYLp-5" edge="1">
          <mxGeometry width="160" relative="1" as="geometry">
            <mxPoint x="59.5" y="320" as="sourcePoint" />
            <mxPoint x="59.5" y="260" as="targetPoint" />
          </mxGeometry>
        </mxCell>
        <mxCell id="7xE9MWdrDau_G4mgAYLp-7" value="ControllerService&lt;br&gt;Manager.py" style="html=1;fillColor=#dae8fc;strokeColor=#6c8ebf;" parent="1" vertex="1">
          <mxGeometry x="200" y="320" width="120" height="50" as="geometry" />
        </mxCell>
        <mxCell id="7xE9MWdrDau_G4mgAYLp-8" value="" style="endArrow=open;endSize=12;dashed=1;html=1;rounded=0;" parent="1" source="7xE9MWdrDau_G4mgAYLp-1" target="7xE9MWdrDau_G4mgAYLp-7" edge="1">
          <mxGeometry width="160" relative="1" as="geometry">
            <mxPoint x="120" y="410" as="sourcePoint" />
            <mxPoint x="280" y="410" as="targetPoint" />
          </mxGeometry>
        </mxCell>
        <mxCell id="7xE9MWdrDau_G4mgAYLp-9" value="" style="endArrow=block;dashed=1;endFill=0;endSize=12;html=1;rounded=0;" parent="1" source="7xE9MWdrDau_G4mgAYLp-7" target="7xE9MWdrDau_G4mgAYLp-4" edge="1">
          <mxGeometry width="160" relative="1" as="geometry">
            <mxPoint x="80" y="450" as="sourcePoint" />
            <mxPoint x="240" y="450" as="targetPoint" />
          </mxGeometry>
        </mxCell>
        <mxCell id="7xE9MWdrDau_G4mgAYLp-11" value="DatasetManager.py" style="html=1;fillColor=#d5e8d4;strokeColor=#33FF33;" parent="1" vertex="1">
          <mxGeometry x="380" y="120" width="120" height="50" as="geometry" />
        </mxCell>
        <mxCell id="7xE9MWdrDau_G4mgAYLp-12" value="ModelManager.py" style="html=1;fillColor=#d5e8d4;strokeColor=#33FF33;" parent="1" vertex="1">
          <mxGeometry x="380" y="420" width="120" height="50" as="geometry" />
        </mxCell>
        <mxCell id="7xE9MWdrDau_G4mgAYLp-13" value="PredictionManager.py" style="html=1;fillColor=#d5e8d4;strokeColor=#33FF33;" parent="1" vertex="1">
          <mxGeometry x="380" y="320" width="120" height="50" as="geometry" />
        </mxCell>
        <mxCell id="7xE9MWdrDau_G4mgAYLp-14" value="TrainingManager.py" style="html=1;fillColor=#d5e8d4;strokeColor=#33FF33;" parent="1" vertex="1">
          <mxGeometry x="380" y="520" width="120" height="50" as="geometry" />
        </mxCell>
        <mxCell id="7xE9MWdrDau_G4mgAYLp-16" value="UserManager.py" style="html=1;fillColor=#d5e8d4;strokeColor=#33FF33;" parent="1" vertex="1">
          <mxGeometry x="380" y="220" width="120" height="50" as="geometry" />
        </mxCell>
        <mxCell id="7xE9MWdrDau_G4mgAYLp-17" value="" style="endArrow=open;endSize=12;dashed=1;html=1;rounded=0;" parent="1" source="7xE9MWdrDau_G4mgAYLp-7" target="7xE9MWdrDau_G4mgAYLp-13" edge="1">
          <mxGeometry width="160" relative="1" as="geometry">
            <mxPoint x="330" y="360" as="sourcePoint" />
            <mxPoint x="490" y="360" as="targetPoint" />
          </mxGeometry>
        </mxCell>
        <mxCell id="7xE9MWdrDau_G4mgAYLp-18" value="" style="endArrow=open;endSize=12;dashed=1;html=1;rounded=0;entryX=0;entryY=0.5;entryDx=0;entryDy=0;" parent="1" source="7xE9MWdrDau_G4mgAYLp-7" target="7xE9MWdrDau_G4mgAYLp-14" edge="1">
          <mxGeometry width="160" relative="1" as="geometry">
            <mxPoint x="340" y="470" as="sourcePoint" />
            <mxPoint x="370" y="545" as="targetPoint" />
            <Array as="points">
              <mxPoint x="340" y="345" />
              <mxPoint x="340" y="545" />
            </Array>
          </mxGeometry>
        </mxCell>
        <mxCell id="7xE9MWdrDau_G4mgAYLp-19" value="" style="endArrow=open;endSize=12;dashed=1;html=1;rounded=0;" parent="1" source="7xE9MWdrDau_G4mgAYLp-7" target="7xE9MWdrDau_G4mgAYLp-12" edge="1">
          <mxGeometry width="160" relative="1" as="geometry">
            <mxPoint x="310" y="260" as="sourcePoint" />
            <mxPoint x="370" y="445" as="targetPoint" />
            <Array as="points">
              <mxPoint x="340" y="345" />
              <mxPoint x="340" y="445" />
            </Array>
          </mxGeometry>
        </mxCell>
        <mxCell id="7xE9MWdrDau_G4mgAYLp-20" value="" style="endArrow=open;endSize=12;dashed=1;html=1;rounded=0;" parent="1" source="7xE9MWdrDau_G4mgAYLp-7" target="7xE9MWdrDau_G4mgAYLp-11" edge="1">
          <mxGeometry width="160" relative="1" as="geometry">
            <mxPoint x="350" y="310" as="sourcePoint" />
            <mxPoint x="510" y="310" as="targetPoint" />
            <Array as="points">
              <mxPoint x="340" y="345" />
              <mxPoint x="340" y="145" />
            </Array>
          </mxGeometry>
        </mxCell>
        <mxCell id="7xE9MWdrDau_G4mgAYLp-21" value="" style="endArrow=open;endSize=12;dashed=1;html=1;rounded=0;" parent="1" source="7xE9MWdrDau_G4mgAYLp-7" target="7xE9MWdrDau_G4mgAYLp-16" edge="1">
          <mxGeometry width="160" relative="1" as="geometry">
            <mxPoint x="310" y="270" as="sourcePoint" />
            <mxPoint x="370" y="245" as="targetPoint" />
            <Array as="points">
              <mxPoint x="340" y="345" />
              <mxPoint x="340" y="245" />
            </Array>
          </mxGeometry>
        </mxCell>
        <mxCell id="7xE9MWdrDau_G4mgAYLp-22" value="DataStorage.py" style="html=1;fillColor=#e51400;strokeColor=#33FF33;fontColor=#ffffff;" parent="1" vertex="1">
          <mxGeometry x="740" y="320" width="120" height="50" as="geometry" />
        </mxCell>
        <mxCell id="7xE9MWdrDau_G4mgAYLp-23" value="MongoDbClient.py" style="html=1;fillColor=#e51400;strokeColor=#33FF33;fontColor=#ffffff;" parent="1" vertex="1">
          <mxGeometry x="740" y="220" width="120" height="50" as="geometry" />
        </mxCell>
        <mxCell id="7xE9MWdrDau_G4mgAYLp-24" value="OntologyManager.py" style="html=1;fillColor=#d5e8d4;strokeColor=#33FF33;" parent="1" vertex="1">
          <mxGeometry x="380" y="620" width="120" height="50" as="geometry" />
        </mxCell>
        <mxCell id="7xE9MWdrDau_G4mgAYLp-25" value="" style="endArrow=open;endSize=12;dashed=1;html=1;rounded=0;" parent="1" source="7xE9MWdrDau_G4mgAYLp-7" target="7xE9MWdrDau_G4mgAYLp-24" edge="1">
          <mxGeometry width="160" relative="1" as="geometry">
            <mxPoint x="330" y="580" as="sourcePoint" />
            <mxPoint x="490" y="580" as="targetPoint" />
            <Array as="points">
              <mxPoint x="340" y="345" />
              <mxPoint x="340" y="645" />
            </Array>
          </mxGeometry>
        </mxCell>
        <mxCell id="7xE9MWdrDau_G4mgAYLp-27" value="Queries.py" style="html=1;fillColor=#fad9d5;strokeColor=#ae4132;" parent="1" vertex="1">
          <mxGeometry x="560" y="620" width="120" height="50" as="geometry" />
        </mxCell>
        <mxCell id="7xE9MWdrDau_G4mgAYLp-28" value="" style="endArrow=open;endSize=12;dashed=1;html=1;rounded=0;" parent="1" source="7xE9MWdrDau_G4mgAYLp-24" target="7xE9MWdrDau_G4mgAYLp-27" edge="1">
          <mxGeometry width="160" relative="1" as="geometry">
            <mxPoint x="470" y="700" as="sourcePoint" />
            <mxPoint x="630" y="700" as="targetPoint" />
          </mxGeometry>
        </mxCell>
        <mxCell id="7xE9MWdrDau_G4mgAYLp-29" value="CsvManager.py" style="html=1;fillColor=#fff2cc;strokeColor=#d6b656;" parent="1" vertex="1">
          <mxGeometry x="560" y="220" width="120" height="50" as="geometry" />
        </mxCell>
        <mxCell id="7xE9MWdrDau_G4mgAYLp-30" value="LongitudinalData&lt;br&gt;Manager.py" style="html=1;fillColor=#fff2cc;strokeColor=#d6b656;" parent="1" vertex="1">
          <mxGeometry x="560" y="120" width="120" height="50" as="geometry" />
        </mxCell>
        <mxCell id="7xE9MWdrDau_G4mgAYLp-31" value="" style="endArrow=open;endSize=12;dashed=1;html=1;rounded=0;entryX=0.001;entryY=0.194;entryDx=0;entryDy=0;entryPerimeter=0;" parent="1" source="7xE9MWdrDau_G4mgAYLp-11" target="7xE9MWdrDau_G4mgAYLp-29" edge="1">
          <mxGeometry width="160" relative="1" as="geometry">
            <mxPoint x="560" y="240" as="sourcePoint" />
            <mxPoint x="720" y="240" as="targetPoint" />
            <Array as="points">
              <mxPoint x="510" y="145" />
              <mxPoint x="510" y="230" />
            </Array>
          </mxGeometry>
        </mxCell>
        <mxCell id="7xE9MWdrDau_G4mgAYLp-32" value="" style="endArrow=open;endSize=12;dashed=1;html=1;rounded=0;" parent="1" source="7xE9MWdrDau_G4mgAYLp-16" target="7xE9MWdrDau_G4mgAYLp-29" edge="1">
          <mxGeometry width="160" relative="1" as="geometry">
            <mxPoint x="610" y="380" as="sourcePoint" />
            <mxPoint x="770" y="380" as="targetPoint" />
          </mxGeometry>
        </mxCell>
        <mxCell id="7xE9MWdrDau_G4mgAYLp-33" value="" style="endArrow=open;endSize=12;dashed=1;html=1;rounded=0;" parent="1" source="7xE9MWdrDau_G4mgAYLp-11" target="7xE9MWdrDau_G4mgAYLp-30" edge="1">
          <mxGeometry width="160" relative="1" as="geometry">
            <mxPoint x="580" y="280" as="sourcePoint" />
            <mxPoint x="740" y="280" as="targetPoint" />
            <Array as="points">
              <mxPoint x="520" y="145" />
            </Array>
            <mxPoint as="offset" />
          </mxGeometry>
        </mxCell>
        <mxCell id="7xE9MWdrDau_G4mgAYLp-35" value="" style="endArrow=open;endSize=12;dashed=1;html=1;rounded=0;" parent="1" source="7xE9MWdrDau_G4mgAYLp-14" target="7xE9MWdrDau_G4mgAYLp-53" edge="1">
          <mxGeometry width="160" relative="1" as="geometry">
            <mxPoint x="600" y="410" as="sourcePoint" />
            <mxPoint x="560" y="545" as="targetPoint" />
          </mxGeometry>
        </mxCell>
        <mxCell id="7xE9MWdrDau_G4mgAYLp-36" value="" style="endArrow=open;endSize=12;dashed=1;html=1;rounded=0;" parent="1" source="7xE9MWdrDau_G4mgAYLp-22" target="7xE9MWdrDau_G4mgAYLp-23" edge="1">
          <mxGeometry width="160" relative="1" as="geometry">
            <mxPoint x="640" y="360" as="sourcePoint" />
            <mxPoint x="800" y="360" as="targetPoint" />
          </mxGeometry>
        </mxCell>
        <mxCell id="7xE9MWdrDau_G4mgAYLp-37" value="" style="endArrow=open;endSize=12;dashed=1;html=1;rounded=0;fillColor=#e51400;strokeColor=#B20000;" parent="1" source="7xE9MWdrDau_G4mgAYLp-13" target="7xE9MWdrDau_G4mgAYLp-22" edge="1">
          <mxGeometry width="160" relative="1" as="geometry">
            <mxPoint x="560" y="340" as="sourcePoint" />
            <mxPoint x="720" y="340" as="targetPoint" />
          </mxGeometry>
        </mxCell>
        <mxCell id="7xE9MWdrDau_G4mgAYLp-38" value="" style="endArrow=open;endSize=12;dashed=1;html=1;rounded=0;fillColor=#e51400;strokeColor=#B20000;" parent="1" source="7xE9MWdrDau_G4mgAYLp-16" target="7xE9MWdrDau_G4mgAYLp-22" edge="1">
          <mxGeometry width="160" relative="1" as="geometry">
            <mxPoint x="550" y="390" as="sourcePoint" />
            <mxPoint x="710" y="390" as="targetPoint" />
            <Array as="points">
              <mxPoint x="440" y="280" />
              <mxPoint x="690" y="280" />
              <mxPoint x="690" y="345" />
            </Array>
          </mxGeometry>
        </mxCell>
        <mxCell id="7xE9MWdrDau_G4mgAYLp-39" value="" style="endArrow=open;endSize=12;dashed=1;html=1;rounded=0;fillColor=#e51400;strokeColor=#B20000;" parent="1" source="7xE9MWdrDau_G4mgAYLp-11" target="7xE9MWdrDau_G4mgAYLp-22" edge="1">
          <mxGeometry x="-0.2897" width="160" relative="1" as="geometry">
            <mxPoint x="530" y="320" as="sourcePoint" />
            <mxPoint x="690" y="320" as="targetPoint" />
            <Array as="points">
              <mxPoint x="440" y="110" />
              <mxPoint x="690" y="110" />
              <mxPoint x="690" y="345" />
            </Array>
            <mxPoint as="offset" />
          </mxGeometry>
        </mxCell>
        <mxCell id="7xE9MWdrDau_G4mgAYLp-42" value="" style="endArrow=open;endSize=12;dashed=1;html=1;rounded=0;fillColor=#e51400;strokeColor=#B20000;" parent="1" source="7xE9MWdrDau_G4mgAYLp-12" target="7xE9MWdrDau_G4mgAYLp-22" edge="1">
          <mxGeometry x="-0.3333" y="5" width="160" relative="1" as="geometry">
            <mxPoint x="560" y="440" as="sourcePoint" />
            <mxPoint x="720" y="440" as="targetPoint" />
            <Array as="points">
              <mxPoint x="690" y="445" />
              <mxPoint x="690" y="345" />
            </Array>
            <mxPoint as="offset" />
          </mxGeometry>
        </mxCell>
        <mxCell id="7xE9MWdrDau_G4mgAYLp-43" value="" style="endArrow=open;endSize=12;dashed=1;html=1;rounded=0;fillColor=#e51400;strokeColor=#B20000;" parent="1" source="7xE9MWdrDau_G4mgAYLp-14" target="7xE9MWdrDau_G4mgAYLp-22" edge="1">
          <mxGeometry x="-0.2258" width="160" relative="1" as="geometry">
            <mxPoint x="460" y="490" as="sourcePoint" />
            <mxPoint x="620" y="490" as="targetPoint" />
            <Array as="points">
              <mxPoint x="440" y="510" />
              <mxPoint x="690" y="510" />
              <mxPoint x="690" y="345" />
            </Array>
            <mxPoint as="offset" />
          </mxGeometry>
        </mxCell>
        <mxCell id="7xE9MWdrDau_G4mgAYLp-44" value="DatasetAnalysis&lt;br&gt;Manager.py" style="html=1;fillColor=#009900;fontColor=#FFFFFF;" parent="1" vertex="1">
          <mxGeometry x="920" y="220" width="120" height="50" as="geometry" />
        </mxCell>
        <mxCell id="7xE9MWdrDau_G4mgAYLp-45" value="" style="endArrow=none;dashed=1;html=1;rounded=0;startArrow=open;startFill=0;exitX=0.75;exitY=0;exitDx=0;exitDy=0;fillColor=#e51400;strokeColor=#B20000;endFill=0;" parent="1" source="7xE9MWdrDau_G4mgAYLp-22" target="7xE9MWdrDau_G4mgAYLp-44" edge="1">
          <mxGeometry width="160" relative="1" as="geometry">
            <mxPoint x="930" y="400" as="sourcePoint" />
            <mxPoint x="1090" y="400" as="targetPoint" />
            <Array as="points">
              <mxPoint x="830" y="300" />
              <mxPoint x="980" y="300" />
            </Array>
          </mxGeometry>
        </mxCell>
        <mxCell id="7xE9MWdrDau_G4mgAYLp-46" value="ExplainableAI&lt;br&gt;Manager.py" style="html=1;fillColor=#009900;fontColor=#FFFFFF;" parent="1" vertex="1">
          <mxGeometry x="1100" y="220" width="120" height="50" as="geometry" />
        </mxCell>
        <mxCell id="7xE9MWdrDau_G4mgAYLp-48" value="" style="endArrow=open;endSize=12;dashed=1;html=1;rounded=0;fillColor=#e51400;strokeColor=#B20000;" parent="1" source="7xE9MWdrDau_G4mgAYLp-46" target="7xE9MWdrDau_G4mgAYLp-22" edge="1">
          <mxGeometry width="160" relative="1" as="geometry">
            <mxPoint x="890" y="370" as="sourcePoint" />
            <mxPoint x="1050" y="370" as="targetPoint" />
            <Array as="points">
              <mxPoint x="1160" y="345" />
            </Array>
          </mxGeometry>
        </mxCell>
        <mxCell id="7xE9MWdrDau_G4mgAYLp-49" value="AdapterManager.py" style="html=1;fillColor=#bac8d3;strokeColor=#23445d;" parent="1" vertex="1">
          <mxGeometry x="920" y="800" width="120" height="50" as="geometry" />
        </mxCell>
        <mxCell id="7xE9MWdrDau_G4mgAYLp-51" value="" style="endArrow=open;endSize=12;dashed=1;html=1;rounded=0;startArrow=none;startFill=0;" parent="1" source="7xE9MWdrDau_G4mgAYLp-46" target="7xE9MWdrDau_G4mgAYLp-49" edge="1">
          <mxGeometry width="160" relative="1" as="geometry">
            <mxPoint x="880" y="410" as="sourcePoint" />
            <mxPoint x="1040" y="410" as="targetPoint" />
            <Array as="points">
              <mxPoint x="1240" y="245" />
              <mxPoint x="1240" y="825" />
            </Array>
          </mxGeometry>
        </mxCell>
        <mxCell id="qMWy1OyVMnEH7EIRquJ9-3" style="edgeStyle=orthogonalEdgeStyle;rounded=0;orthogonalLoop=1;jettySize=auto;html=1;dashed=1;endArrow=open;endFill=0;endSize=12;" edge="1" parent="1" source="7xE9MWdrDau_G4mgAYLp-53" target="qMWy1OyVMnEH7EIRquJ9-2">
          <mxGeometry relative="1" as="geometry">
            <Array as="points">
              <mxPoint x="690" y="545" />
              <mxPoint x="690" y="650" />
            </Array>
          </mxGeometry>
        </mxCell>
        <mxCell id="7xE9MWdrDau_G4mgAYLp-53" value="AdapterRuntime&lt;br&gt;Scheduler.py" style="html=1;fillColor=#bac8d3;strokeColor=#33FF33;" parent="1" vertex="1">
          <mxGeometry x="560" y="520" width="120" height="50" as="geometry" />
        </mxCell>
        <mxCell id="qMWy1OyVMnEH7EIRquJ9-13" style="edgeStyle=orthogonalEdgeStyle;rounded=0;orthogonalLoop=1;jettySize=auto;html=1;dashed=1;endArrow=open;endFill=0;endSize=12;" edge="1" parent="1" source="7xE9MWdrDau_G4mgAYLp-54" target="qMWy1OyVMnEH7EIRquJ9-12">
          <mxGeometry relative="1" as="geometry" />
        </mxCell>
        <mxCell id="7xE9MWdrDau_G4mgAYLp-54" value="AdapterRuntime&lt;br&gt;Manager.py" style="html=1;fillColor=#bac8d3;strokeColor=#23445d;" parent="1" vertex="1">
          <mxGeometry x="740" y="800" width="120" height="50" as="geometry" />
        </mxCell>
        <mxCell id="7xE9MWdrDau_G4mgAYLp-56" value="AdapterPrediction&lt;br&gt;Manager.py" style="html=1;fillColor=#bac8d3;strokeColor=#23445d;" parent="1" vertex="1">
          <mxGeometry x="920" y="520" width="120" height="50" as="geometry" />
        </mxCell>
        <mxCell id="7xE9MWdrDau_G4mgAYLp-57" value="AdapterRuntime&lt;br&gt;PredictionManager.py" style="html=1;fillColor=#bac8d3;strokeColor=#23445d;" parent="1" vertex="1">
          <mxGeometry x="740" y="520" width="120" height="50" as="geometry" />
        </mxCell>
        <mxCell id="7xE9MWdrDau_G4mgAYLp-58" value="Blackboard.py" style="html=1;fillColor=#0050ef;strokeColor=#001DBC;fontColor=#ffffff;" parent="1" vertex="1">
          <mxGeometry x="1105" y="910" width="120" height="50" as="geometry" />
        </mxCell>
        <mxCell id="7xE9MWdrDau_G4mgAYLp-59" value="StrategyController.py" style="html=1;fillColor=#fa6800;strokeColor=#C73500;fontColor=#000000;" parent="1" vertex="1">
          <mxGeometry x="920" y="1020" width="120" height="50" as="geometry" />
        </mxCell>
        <mxCell id="7xE9MWdrDau_G4mgAYLp-60" value="IAbstractStrategy.py" style="html=1;fillColor=#ffe6cc;strokeColor=#d79b00;" parent="1" vertex="1">
          <mxGeometry x="740" y="1130" width="120" height="50" as="geometry" />
        </mxCell>
        <mxCell id="7xE9MWdrDau_G4mgAYLp-61" value="PreTraining&lt;br&gt;Strategy.py" style="html=1;fillColor=#ffe6cc;strokeColor=#d79b00;" parent="1" vertex="1">
          <mxGeometry x="740" y="1020" width="120" height="50" as="geometry" />
        </mxCell>
        <mxCell id="7xE9MWdrDau_G4mgAYLp-62" value="IAbstractBlackboard&lt;br&gt;Agent.py" style="html=1;fillColor=#ffe6cc;strokeColor=#d79b00;" parent="1" vertex="1">
          <mxGeometry x="920" y="1130" width="120" height="50" as="geometry" />
        </mxCell>
        <mxCell id="7xE9MWdrDau_G4mgAYLp-63" value="DataAnalysis&lt;br&gt;Agent.py" style="html=1;fillColor=#ffe6cc;strokeColor=#d79b00;" parent="1" vertex="1">
          <mxGeometry x="1105" y="1130" width="120" height="50" as="geometry" />
        </mxCell>
        <mxCell id="7xE9MWdrDau_G4mgAYLp-64" value="AdapterRuntime&lt;br&gt;ManagerAgent.py" style="html=1;fillColor=#ffe6cc;strokeColor=#d79b00;" parent="1" vertex="1">
          <mxGeometry x="740" y="910" width="120" height="50" as="geometry" />
        </mxCell>
        <mxCell id="7xE9MWdrDau_G4mgAYLp-65" value="AdapterManager&lt;br&gt;Agent.py" style="html=1;fillColor=#ffe6cc;strokeColor=#d79b00;" parent="1" vertex="1">
          <mxGeometry x="1280" y="910" width="120" height="50" as="geometry" />
        </mxCell>
        <mxCell id="7xE9MWdrDau_G4mgAYLp-66" value="" style="endArrow=block;dashed=1;endFill=0;endSize=12;html=1;rounded=0;" parent="1" source="7xE9MWdrDau_G4mgAYLp-65" target="7xE9MWdrDau_G4mgAYLp-62" edge="1">
          <mxGeometry width="160" relative="1" as="geometry">
            <mxPoint x="1900" y="950" as="sourcePoint" />
            <mxPoint x="2060" y="950" as="targetPoint" />
            <Array as="points">
              <mxPoint x="1340" y="1200" />
              <mxPoint x="980" y="1200" />
            </Array>
          </mxGeometry>
        </mxCell>
        <mxCell id="7xE9MWdrDau_G4mgAYLp-67" value="" style="endArrow=block;dashed=1;endFill=0;endSize=12;html=1;rounded=0;" parent="1" source="7xE9MWdrDau_G4mgAYLp-64" target="7xE9MWdrDau_G4mgAYLp-62" edge="1">
          <mxGeometry width="160" relative="1" as="geometry">
            <mxPoint x="1800" y="830" as="sourcePoint" />
            <mxPoint x="1960" y="830" as="targetPoint" />
            <Array as="points">
              <mxPoint x="720" y="940" />
              <mxPoint x="720" y="1200" />
              <mxPoint x="980" y="1200" />
            </Array>
          </mxGeometry>
        </mxCell>
        <mxCell id="7xE9MWdrDau_G4mgAYLp-68" value="" style="endArrow=block;dashed=1;endFill=0;endSize=12;html=1;rounded=0;" parent="1" source="7xE9MWdrDau_G4mgAYLp-63" target="7xE9MWdrDau_G4mgAYLp-62" edge="1">
          <mxGeometry width="160" relative="1" as="geometry">
            <mxPoint x="1840" y="860" as="sourcePoint" />
            <mxPoint x="2000" y="860" as="targetPoint" />
          </mxGeometry>
        </mxCell>
        <mxCell id="7xE9MWdrDau_G4mgAYLp-69" value="" style="endArrow=block;dashed=1;endFill=0;endSize=12;html=1;rounded=0;" parent="1" source="7xE9MWdrDau_G4mgAYLp-61" target="7xE9MWdrDau_G4mgAYLp-60" edge="1">
          <mxGeometry width="160" relative="1" as="geometry">
            <mxPoint x="1370" y="840" as="sourcePoint" />
            <mxPoint x="1530" y="840" as="targetPoint" />
          </mxGeometry>
        </mxCell>
        <mxCell id="7xE9MWdrDau_G4mgAYLp-70" value="" style="endArrow=open;endSize=12;dashed=1;html=1;rounded=0;fillColor=#fa6800;strokeColor=#C73500;" parent="1" source="7xE9MWdrDau_G4mgAYLp-62" target="7xE9MWdrDau_G4mgAYLp-59" edge="1">
          <mxGeometry width="160" relative="1" as="geometry">
            <mxPoint x="1480" y="930" as="sourcePoint" />
            <mxPoint x="1640" y="930" as="targetPoint" />
          </mxGeometry>
        </mxCell>
        <mxCell id="7xE9MWdrDau_G4mgAYLp-72" value="" style="endArrow=open;endSize=12;dashed=1;html=1;rounded=0;exitX=0.75;exitY=0;exitDx=0;exitDy=0;fillColor=#0050ef;strokeColor=#001DBC;" parent="1" source="7xE9MWdrDau_G4mgAYLp-62" target="7xE9MWdrDau_G4mgAYLp-58" edge="1">
          <mxGeometry width="160" relative="1" as="geometry">
            <mxPoint x="1520" y="950" as="sourcePoint" />
            <mxPoint x="1680" y="950" as="targetPoint" />
            <Array as="points">
              <mxPoint x="1010" y="1100" />
              <mxPoint x="1165" y="1100" />
            </Array>
          </mxGeometry>
        </mxCell>
        <mxCell id="7xE9MWdrDau_G4mgAYLp-73" value="" style="endArrow=open;endSize=12;dashed=1;html=1;rounded=0;fillColor=#fa6800;strokeColor=#C73500;" parent="1" source="7xE9MWdrDau_G4mgAYLp-60" target="7xE9MWdrDau_G4mgAYLp-59" edge="1">
          <mxGeometry width="160" relative="1" as="geometry">
            <mxPoint x="1590" y="950" as="sourcePoint" />
            <mxPoint x="1750" y="950" as="targetPoint" />
            <Array as="points">
              <mxPoint x="880" y="1155" />
              <mxPoint x="880" y="1120" />
              <mxPoint x="980" y="1120" />
            </Array>
          </mxGeometry>
        </mxCell>
        <mxCell id="7xE9MWdrDau_G4mgAYLp-75" value="" style="endArrow=open;endSize=12;dashed=1;html=1;rounded=0;" parent="1" source="7xE9MWdrDau_G4mgAYLp-46" target="7xE9MWdrDau_G4mgAYLp-65" edge="1">
          <mxGeometry width="160" relative="1" as="geometry">
            <mxPoint x="1380" y="260" as="sourcePoint" />
            <mxPoint x="1540" y="260" as="targetPoint" />
            <Array as="points">
              <mxPoint x="1340" y="245" />
            </Array>
          </mxGeometry>
        </mxCell>
        <mxCell id="7xE9MWdrDau_G4mgAYLp-87" value="" style="endArrow=open;endSize=12;dashed=1;html=1;rounded=0;" parent="1" source="7xE9MWdrDau_G4mgAYLp-53" target="7xE9MWdrDau_G4mgAYLp-57" edge="1">
          <mxGeometry width="160" relative="1" as="geometry">
            <mxPoint x="700" y="600" as="sourcePoint" />
            <mxPoint x="860" y="600" as="targetPoint" />
          </mxGeometry>
        </mxCell>
        <mxCell id="7xE9MWdrDau_G4mgAYLp-88" value="" style="endArrow=open;endSize=12;dashed=1;html=1;rounded=0;" parent="1" source="7xE9MWdrDau_G4mgAYLp-57" target="7xE9MWdrDau_G4mgAYLp-56" edge="1">
          <mxGeometry width="160" relative="1" as="geometry">
            <mxPoint x="830" y="600" as="sourcePoint" />
            <mxPoint x="990" y="600" as="targetPoint" />
          </mxGeometry>
        </mxCell>
        <mxCell id="7xE9MWdrDau_G4mgAYLp-89" value="" style="endArrow=open;endSize=12;dashed=1;html=1;rounded=0;" parent="1" source="7xE9MWdrDau_G4mgAYLp-54" target="7xE9MWdrDau_G4mgAYLp-49" edge="1">
          <mxGeometry width="160" relative="1" as="geometry">
            <mxPoint x="870" y="810" as="sourcePoint" />
            <mxPoint x="1030" y="810" as="targetPoint" />
          </mxGeometry>
        </mxCell>
        <mxCell id="7xE9MWdrDau_G4mgAYLp-90" value="" style="endArrow=open;endSize=12;dashed=1;html=1;rounded=0;" parent="1" source="7xE9MWdrDau_G4mgAYLp-53" target="7xE9MWdrDau_G4mgAYLp-54" edge="1">
          <mxGeometry width="160" relative="1" as="geometry">
            <mxPoint x="730" y="600" as="sourcePoint" />
            <mxPoint x="890" y="600" as="targetPoint" />
            <Array as="points">
              <mxPoint x="690" y="545" />
              <mxPoint x="690" y="820" />
            </Array>
          </mxGeometry>
        </mxCell>
        <mxCell id="7xE9MWdrDau_G4mgAYLp-91" value="" style="endArrow=open;endSize=12;dashed=1;html=1;rounded=0;fillColor=#e51400;strokeColor=#B20000;" parent="1" source="7xE9MWdrDau_G4mgAYLp-53" target="7xE9MWdrDau_G4mgAYLp-22" edge="1">
          <mxGeometry x="-0.8077" width="160" relative="1" as="geometry">
            <mxPoint x="790" y="480" as="sourcePoint" />
            <mxPoint x="950" y="480" as="targetPoint" />
            <Array as="points">
              <mxPoint x="690" y="545" />
              <mxPoint x="690" y="345" />
            </Array>
            <mxPoint as="offset" />
          </mxGeometry>
        </mxCell>
        <mxCell id="7xE9MWdrDau_G4mgAYLp-92" value="" style="endArrow=open;endSize=12;dashed=1;html=1;rounded=0;fillColor=#e51400;strokeColor=#B20000;" parent="1" edge="1">
          <mxGeometry width="160" relative="1" as="geometry">
            <mxPoint x="799.84" y="520" as="sourcePoint" />
            <mxPoint x="799.84" y="370" as="targetPoint" />
          </mxGeometry>
        </mxCell>
        <mxCell id="7xE9MWdrDau_G4mgAYLp-93" value="" style="endArrow=open;endSize=12;dashed=1;html=1;rounded=0;fillColor=#e51400;strokeColor=#B20000;" parent="1" source="7xE9MWdrDau_G4mgAYLp-56" target="7xE9MWdrDau_G4mgAYLp-22" edge="1">
          <mxGeometry x="-0.0303" y="10" width="160" relative="1" as="geometry">
            <mxPoint x="870" y="450" as="sourcePoint" />
            <mxPoint x="1030" y="450" as="targetPoint" />
            <Array as="points">
              <mxPoint x="980" y="480" />
              <mxPoint x="800" y="480" />
            </Array>
            <mxPoint as="offset" />
          </mxGeometry>
        </mxCell>
        <mxCell id="7xE9MWdrDau_G4mgAYLp-94" value="" style="endArrow=open;endSize=12;dashed=1;html=1;rounded=0;" parent="1" source="7xE9MWdrDau_G4mgAYLp-56" target="7xE9MWdrDau_G4mgAYLp-3" edge="1">
          <mxGeometry width="160" relative="1" as="geometry">
            <mxPoint x="1110" y="600" as="sourcePoint" />
            <mxPoint x="1270" y="600" as="targetPoint" />
          </mxGeometry>
        </mxCell>
        <mxCell id="7xE9MWdrDau_G4mgAYLp-95" value="" style="endArrow=open;endSize=12;dashed=1;html=1;rounded=0;" parent="1" source="7xE9MWdrDau_G4mgAYLp-49" target="7xE9MWdrDau_G4mgAYLp-3" edge="1">
          <mxGeometry width="160" relative="1" as="geometry">
            <mxPoint x="1050" y="670" as="sourcePoint" />
            <mxPoint x="1210" y="670" as="targetPoint" />
            <Array as="points">
              <mxPoint x="980" y="730" />
              <mxPoint x="1160" y="730" />
              <mxPoint x="1160" y="600" />
            </Array>
          </mxGeometry>
        </mxCell>
        <mxCell id="7xE9MWdrDau_G4mgAYLp-96" value="ThreadLock.py" style="html=1;fillColor=#fad9d5;strokeColor=#33FF33;" parent="1" vertex="1">
          <mxGeometry x="1105" y="90" width="110" height="50" as="geometry" />
        </mxCell>
        <mxCell id="7xE9MWdrDau_G4mgAYLp-97" value="" style="endArrow=open;endSize=12;dashed=1;html=1;rounded=0;fillColor=#e51400;strokeColor=#B20000;" parent="1" source="7xE9MWdrDau_G4mgAYLp-54" target="7xE9MWdrDau_G4mgAYLp-22" edge="1">
          <mxGeometry width="160" relative="1" as="geometry">
            <mxPoint x="1120" y="740" as="sourcePoint" />
            <mxPoint x="1280" y="740" as="targetPoint" />
            <Array as="points">
              <mxPoint x="800" y="730" />
              <mxPoint x="880" y="730" />
              <mxPoint x="880" y="600" />
              <mxPoint x="880" y="480" />
              <mxPoint x="800" y="480" />
            </Array>
          </mxGeometry>
        </mxCell>
        <mxCell id="7xE9MWdrDau_G4mgAYLp-98" value="" style="endArrow=open;endSize=12;dashed=1;html=1;rounded=0;fillColor=#e51400;strokeColor=#B20000;" parent="1" source="7xE9MWdrDau_G4mgAYLp-49" target="7xE9MWdrDau_G4mgAYLp-22" edge="1">
          <mxGeometry width="160" relative="1" as="geometry">
            <mxPoint x="910" y="700" as="sourcePoint" />
            <mxPoint x="1070" y="700" as="targetPoint" />
            <Array as="points">
              <mxPoint x="980" y="730" />
              <mxPoint x="880" y="730" />
              <mxPoint x="880" y="600" />
              <mxPoint x="880" y="480" />
              <mxPoint x="800" y="480" />
            </Array>
          </mxGeometry>
        </mxCell>
        <mxCell id="7xE9MWdrDau_G4mgAYLp-99" value="" style="endArrow=open;endSize=12;dashed=1;html=1;rounded=0;fillColor=#0050ef;strokeColor=#001DBC;" parent="1" source="7xE9MWdrDau_G4mgAYLp-54" target="7xE9MWdrDau_G4mgAYLp-58" edge="1">
          <mxGeometry width="160" relative="1" as="geometry">
            <mxPoint x="1150" y="920" as="sourcePoint" />
            <mxPoint x="1310" y="920" as="targetPoint" />
            <Array as="points">
              <mxPoint x="870" y="825" />
              <mxPoint x="870" y="880" />
              <mxPoint x="940" y="880" />
              <mxPoint x="940" y="935" />
            </Array>
          </mxGeometry>
        </mxCell>
        <mxCell id="7xE9MWdrDau_G4mgAYLp-100" value="" style="endArrow=open;endSize=12;dashed=1;html=1;rounded=0;exitX=0.5;exitY=0;exitDx=0;exitDy=0;entryX=0.75;entryY=1;entryDx=0;entryDy=0;fillColor=#a0522d;strokeColor=#009900;" parent="1" source="7xE9MWdrDau_G4mgAYLp-54" target="7xE9MWdrDau_G4mgAYLp-46" edge="1">
          <mxGeometry width="160" relative="1" as="geometry">
            <mxPoint x="910" y="740" as="sourcePoint" />
            <mxPoint x="1070" y="740" as="targetPoint" />
            <Array as="points">
              <mxPoint x="800" y="730" />
              <mxPoint x="880" y="730" />
              <mxPoint x="880" y="600" />
              <mxPoint x="880" y="400" />
              <mxPoint x="1190" y="400" />
            </Array>
          </mxGeometry>
        </mxCell>
        <mxCell id="7xE9MWdrDau_G4mgAYLp-101" value="" style="endArrow=open;endSize=12;dashed=1;html=1;rounded=0;strokeColor=#FA6800;" parent="1" target="7xE9MWdrDau_G4mgAYLp-59" edge="1">
          <mxGeometry width="160" relative="1" as="geometry">
            <mxPoint x="830" y="850" as="sourcePoint" />
            <mxPoint x="1040" y="950" as="targetPoint" />
            <Array as="points">
              <mxPoint x="830" y="900" />
              <mxPoint x="980" y="900" />
            </Array>
          </mxGeometry>
        </mxCell>
        <mxCell id="7xE9MWdrDau_G4mgAYLp-102" value="" style="endArrow=open;endSize=12;dashed=1;html=1;rounded=0;exitX=0.25;exitY=1;exitDx=0;exitDy=0;" parent="1" source="7xE9MWdrDau_G4mgAYLp-54" target="7xE9MWdrDau_G4mgAYLp-63" edge="1">
          <mxGeometry width="160" relative="1" as="geometry">
            <mxPoint x="1160" y="690" as="sourcePoint" />
            <mxPoint x="1320" y="690" as="targetPoint" />
            <Array as="points">
              <mxPoint x="770" y="870" />
              <mxPoint x="700" y="870" />
              <mxPoint x="700" y="1220" />
              <mxPoint x="1165" y="1220" />
            </Array>
          </mxGeometry>
        </mxCell>
        <mxCell id="7xE9MWdrDau_G4mgAYLp-103" value="" style="endArrow=open;endSize=12;dashed=1;html=1;rounded=0;startArrow=open;startFill=0;" parent="1" source="7xE9MWdrDau_G4mgAYLp-54" target="7xE9MWdrDau_G4mgAYLp-64" edge="1">
          <mxGeometry width="160" relative="1" as="geometry">
            <mxPoint x="1120" y="950" as="sourcePoint" />
            <mxPoint x="1280" y="950" as="targetPoint" />
          </mxGeometry>
        </mxCell>
        <mxCell id="7xE9MWdrDau_G4mgAYLp-104" value="" style="endArrow=open;endSize=6;dashed=1;html=1;rounded=0;startArrow=open;startFill=0;exitX=1;exitY=0.75;exitDx=0;exitDy=0;entryX=0.25;entryY=0;entryDx=0;entryDy=0;endFill=0;" parent="1" source="7xE9MWdrDau_G4mgAYLp-49" target="7xE9MWdrDau_G4mgAYLp-65" edge="1">
          <mxGeometry width="160" relative="1" as="geometry">
            <mxPoint x="940" y="1030" as="sourcePoint" />
            <mxPoint x="1100" y="1030" as="targetPoint" />
            <Array as="points">
              <mxPoint x="1310" y="838" />
            </Array>
          </mxGeometry>
        </mxCell>
        <mxCell id="7xE9MWdrDau_G4mgAYLp-105" value="" style="endArrow=open;endSize=12;dashed=1;html=1;rounded=0;fillColor=#0050ef;strokeColor=#001DBC;" parent="1" source="7xE9MWdrDau_G4mgAYLp-49" target="7xE9MWdrDau_G4mgAYLp-58" edge="1">
          <mxGeometry width="160" relative="1" as="geometry">
            <mxPoint x="980" y="980" as="sourcePoint" />
            <mxPoint x="1140" y="980" as="targetPoint" />
            <Array as="points">
              <mxPoint x="980" y="860" />
              <mxPoint x="1165" y="860" />
            </Array>
          </mxGeometry>
        </mxCell>
        <mxCell id="7xE9MWdrDau_G4mgAYLp-106" value="" style="endArrow=open;endSize=12;dashed=1;html=1;rounded=0;fillColor=#fa6800;strokeColor=#C73500;" parent="1" source="7xE9MWdrDau_G4mgAYLp-49" target="7xE9MWdrDau_G4mgAYLp-59" edge="1">
          <mxGeometry width="160" relative="1" as="geometry">
            <mxPoint x="1130" y="1020" as="sourcePoint" />
            <mxPoint x="1290" y="1020" as="targetPoint" />
          </mxGeometry>
        </mxCell>
        <mxCell id="7xE9MWdrDau_G4mgAYLp-107" value="" style="endArrow=open;endSize=12;dashed=1;html=1;rounded=0;" parent="1" source="7xE9MWdrDau_G4mgAYLp-61" target="7xE9MWdrDau_G4mgAYLp-64" edge="1">
          <mxGeometry width="160" relative="1" as="geometry">
            <mxPoint x="1320" y="620" as="sourcePoint" />
            <mxPoint x="1370" y="620" as="targetPoint" />
          </mxGeometry>
        </mxCell>
        <mxCell id="7xE9MWdrDau_G4mgAYLp-108" value="" style="endArrow=open;endSize=12;dashed=1;html=1;rounded=0;exitX=0.75;exitY=0;exitDx=0;exitDy=0;entryX=0.5;entryY=1;entryDx=0;entryDy=0;fillColor=#0050ef;strokeColor=#001DBC;" parent="1" source="7xE9MWdrDau_G4mgAYLp-61" target="7xE9MWdrDau_G4mgAYLp-58" edge="1">
          <mxGeometry x="-0.038" width="160" relative="1" as="geometry">
            <mxPoint x="1300" y="690" as="sourcePoint" />
            <mxPoint x="1460" y="690" as="targetPoint" />
            <Array as="points">
              <mxPoint x="830" y="990" />
              <mxPoint x="1165" y="990" />
            </Array>
            <mxPoint as="offset" />
          </mxGeometry>
        </mxCell>
        <mxCell id="7xE9MWdrDau_G4mgAYLp-109" value="" style="endArrow=open;endSize=12;dashed=1;html=1;rounded=0;fillColor=#fa6800;strokeColor=#C73500;" parent="1" source="7xE9MWdrDau_G4mgAYLp-61" target="7xE9MWdrDau_G4mgAYLp-59" edge="1">
          <mxGeometry y="-15" width="160" relative="1" as="geometry">
            <mxPoint x="1350" y="690" as="sourcePoint" />
            <mxPoint x="1510" y="690" as="targetPoint" />
            <mxPoint as="offset" />
          </mxGeometry>
        </mxCell>
        <mxCell id="7xE9MWdrDau_G4mgAYLp-110" value="" style="endArrow=open;endSize=12;dashed=1;html=1;rounded=0;fillColor=#fa6800;strokeColor=#C73500;" parent="1" source="7xE9MWdrDau_G4mgAYLp-63" target="7xE9MWdrDau_G4mgAYLp-59" edge="1">
          <mxGeometry width="160" relative="1" as="geometry">
            <mxPoint x="1530" y="1010" as="sourcePoint" />
            <mxPoint x="1690" y="1010" as="targetPoint" />
            <Array as="points">
              <mxPoint x="1165" y="1120" />
              <mxPoint x="980" y="1120" />
            </Array>
          </mxGeometry>
        </mxCell>
        <mxCell id="7xE9MWdrDau_G4mgAYLp-111" value="" style="endArrow=open;endSize=12;dashed=1;html=1;rounded=0;fillColor=#0050ef;strokeColor=#001DBC;" parent="1" source="7xE9MWdrDau_G4mgAYLp-63" target="7xE9MWdrDau_G4mgAYLp-58" edge="1">
          <mxGeometry x="-0.0588" y="5" width="160" relative="1" as="geometry">
            <mxPoint x="1520" y="1010" as="sourcePoint" />
            <mxPoint x="1680" y="1010" as="targetPoint" />
            <mxPoint as="offset" />
          </mxGeometry>
        </mxCell>
        <mxCell id="7xE9MWdrDau_G4mgAYLp-112" value="" style="endArrow=open;endSize=12;dashed=1;html=1;rounded=0;fillColor=#fa6800;strokeColor=#C73500;" parent="1" source="7xE9MWdrDau_G4mgAYLp-64" target="7xE9MWdrDau_G4mgAYLp-59" edge="1">
          <mxGeometry width="160" relative="1" as="geometry">
            <mxPoint x="1080" y="1070" as="sourcePoint" />
            <mxPoint x="1240" y="1070" as="targetPoint" />
            <Array as="points">
              <mxPoint x="870" y="935" />
              <mxPoint x="870" y="1045" />
            </Array>
          </mxGeometry>
        </mxCell>
        <mxCell id="7xE9MWdrDau_G4mgAYLp-113" value="" style="endArrow=open;endSize=12;dashed=1;html=1;rounded=0;fillColor=#0050ef;strokeColor=#001DBC;" parent="1" source="7xE9MWdrDau_G4mgAYLp-64" target="7xE9MWdrDau_G4mgAYLp-58" edge="1">
          <mxGeometry width="160" relative="1" as="geometry">
            <mxPoint x="1190" y="1030" as="sourcePoint" />
            <mxPoint x="1350" y="1030" as="targetPoint" />
          </mxGeometry>
        </mxCell>
        <mxCell id="7xE9MWdrDau_G4mgAYLp-114" value="" style="endArrow=open;endSize=12;dashed=1;html=1;rounded=0;fillColor=#0050ef;strokeColor=#001DBC;" parent="1" source="7xE9MWdrDau_G4mgAYLp-65" target="7xE9MWdrDau_G4mgAYLp-58" edge="1">
          <mxGeometry width="160" relative="1" as="geometry">
            <mxPoint x="1520" y="1050" as="sourcePoint" />
            <mxPoint x="1680" y="1050" as="targetPoint" />
          </mxGeometry>
        </mxCell>
        <mxCell id="7xE9MWdrDau_G4mgAYLp-115" value="" style="endArrow=open;endSize=12;dashed=1;html=1;rounded=0;fillColor=#fa6800;strokeColor=#C73500;" parent="1" source="7xE9MWdrDau_G4mgAYLp-65" target="7xE9MWdrDau_G4mgAYLp-59" edge="1">
          <mxGeometry width="160" relative="1" as="geometry">
            <mxPoint x="1530" y="1010" as="sourcePoint" />
            <mxPoint x="1690" y="1010" as="targetPoint" />
            <Array as="points">
              <mxPoint x="1340" y="1045" />
            </Array>
          </mxGeometry>
        </mxCell>
        <mxCell id="7xE9MWdrDau_G4mgAYLp-116" value="" style="endArrow=open;endSize=12;dashed=1;html=1;rounded=0;" parent="1" source="7xE9MWdrDau_G4mgAYLp-46" target="7xE9MWdrDau_G4mgAYLp-96" edge="1">
          <mxGeometry width="160" relative="1" as="geometry">
            <mxPoint x="1260" y="230" as="sourcePoint" />
            <mxPoint x="1420" y="230" as="targetPoint" />
          </mxGeometry>
        </mxCell>
        <mxCell id="7xE9MWdrDau_G4mgAYLp-117" value="" style="endArrow=open;endSize=12;dashed=1;html=1;rounded=0;" parent="1" source="7xE9MWdrDau_G4mgAYLp-44" target="7xE9MWdrDau_G4mgAYLp-96" edge="1">
          <mxGeometry x="0.5217" y="-55" width="160" relative="1" as="geometry">
            <mxPoint x="950" y="190" as="sourcePoint" />
            <mxPoint x="1110" y="190" as="targetPoint" />
            <Array as="points">
              <mxPoint x="980" y="115" />
            </Array>
            <mxPoint as="offset" />
          </mxGeometry>
        </mxCell>
        <mxCell id="7xE9MWdrDau_G4mgAYLp-125" value="" style="html=1;fillColor=#99FFFF;strokeColor=#99FFFF;" parent="1" vertex="1">
          <mxGeometry x="30" y="820" width="120" height="50" as="geometry" />
        </mxCell>
        <mxCell id="7xE9MWdrDau_G4mgAYLp-126" value="" style="html=1;fillColor=#DAE8FC;strokeColor=#DAE8FC;" parent="1" vertex="1">
          <mxGeometry x="30" y="880" width="120" height="50" as="geometry" />
        </mxCell>
        <mxCell id="7xE9MWdrDau_G4mgAYLp-127" value="Dependency injection management classes" style="text;html=1;strokeColor=none;fillColor=none;align=center;verticalAlign=middle;whiteSpace=wrap;rounded=0;" parent="1" vertex="1">
          <mxGeometry x="170" y="830" width="290" height="30" as="geometry" />
        </mxCell>
        <mxCell id="7xE9MWdrDau_G4mgAYLp-128" value="Application main and GRPC endpoint files" style="text;html=1;strokeColor=none;fillColor=none;align=center;verticalAlign=middle;whiteSpace=wrap;rounded=0;" parent="1" vertex="1">
          <mxGeometry x="170" y="890" width="290" height="30" as="geometry" />
        </mxCell>
        <mxCell id="7xE9MWdrDau_G4mgAYLp-129" value="" style="html=1;fillColor=none;strokeColor=#33FF33;gradientColor=none;" parent="1" vertex="1">
          <mxGeometry x="30" y="760" width="120" height="50" as="geometry" />
        </mxCell>
        <mxCell id="7xE9MWdrDau_G4mgAYLp-130" value="Classes that are dependency injected at runtime by Container.py" style="text;html=1;strokeColor=none;fillColor=none;align=center;verticalAlign=middle;whiteSpace=wrap;rounded=0;" parent="1" vertex="1">
          <mxGeometry x="179" y="770" width="290" height="30" as="geometry" />
        </mxCell>
        <mxCell id="7xE9MWdrDau_G4mgAYLp-132" value="" style="html=1;fillColor=#D5E8D4;strokeColor=#D5E8D4;" parent="1" vertex="1">
          <mxGeometry x="30" y="1000" width="120" height="50" as="geometry" />
        </mxCell>
        <mxCell id="7xE9MWdrDau_G4mgAYLp-133" value="" style="html=1;fillColor=#FAD9D5;strokeColor=#FAD9D5;" parent="1" vertex="1">
          <mxGeometry x="30" y="1060" width="120" height="50" as="geometry" />
        </mxCell>
        <mxCell id="7xE9MWdrDau_G4mgAYLp-134" value="General / ontology manager files" style="text;html=1;strokeColor=none;fillColor=none;align=center;verticalAlign=middle;whiteSpace=wrap;rounded=0;" parent="1" vertex="1">
          <mxGeometry x="170" y="1010" width="290" height="30" as="geometry" />
        </mxCell>
        <mxCell id="7xE9MWdrDau_G4mgAYLp-135" value="General utility files" style="text;html=1;strokeColor=none;fillColor=none;align=center;verticalAlign=middle;whiteSpace=wrap;rounded=0;" parent="1" vertex="1">
          <mxGeometry x="170" y="1070" width="290" height="30" as="geometry" />
        </mxCell>
        <mxCell id="7xE9MWdrDau_G4mgAYLp-136" value="" style="html=1;fillColor=#E1D5E7;strokeColor=#E1D5E7;gradientColor=none;" parent="1" vertex="1">
          <mxGeometry x="30" y="940" width="120" height="50" as="geometry" />
        </mxCell>
        <mxCell id="7xE9MWdrDau_G4mgAYLp-137" value="GRPC compiled files" style="text;html=1;strokeColor=none;fillColor=none;align=center;verticalAlign=middle;whiteSpace=wrap;rounded=0;" parent="1" vertex="1">
          <mxGeometry x="179" y="950" width="290" height="30" as="geometry" />
        </mxCell>
        <mxCell id="7xE9MWdrDau_G4mgAYLp-138" value="" style="html=1;fillColor=#FFF2CC;strokeColor=#FFF2CC;" parent="1" vertex="1">
          <mxGeometry x="30" y="1120" width="120" height="50" as="geometry" />
        </mxCell>
        <mxCell id="7xE9MWdrDau_G4mgAYLp-139" value="" style="html=1;fillColor=#BAC8D3;strokeColor=#BAC8D3;" parent="1" vertex="1">
          <mxGeometry x="30" y="1180" width="120" height="50" as="geometry" />
        </mxCell>
        <mxCell id="7xE9MWdrDau_G4mgAYLp-140" value="Data manager files" style="text;html=1;strokeColor=none;fillColor=none;align=center;verticalAlign=middle;whiteSpace=wrap;rounded=0;" parent="1" vertex="1">
          <mxGeometry x="170" y="1130" width="290" height="30" as="geometry" />
        </mxCell>
        <mxCell id="7xE9MWdrDau_G4mgAYLp-141" value="Adapter manager files" style="text;html=1;strokeColor=none;fillColor=none;align=center;verticalAlign=middle;whiteSpace=wrap;rounded=0;" parent="1" vertex="1">
          <mxGeometry x="170" y="1190" width="290" height="30" as="geometry" />
        </mxCell>
        <mxCell id="7xE9MWdrDau_G4mgAYLp-142" value="" style="html=1;fillColor=#009900;strokeColor=#009900;" parent="1" vertex="1">
          <mxGeometry x="30" y="1300" width="120" height="50" as="geometry" />
        </mxCell>
        <mxCell id="7xE9MWdrDau_G4mgAYLp-143" value="" style="html=1;fillColor=#FFE6CC;strokeColor=#FFE6CC;" parent="1" vertex="1">
          <mxGeometry x="30" y="1360" width="120" height="50" as="geometry" />
        </mxCell>
        <mxCell id="7xE9MWdrDau_G4mgAYLp-144" value="Analysis manager files" style="text;html=1;strokeColor=none;fillColor=none;align=center;verticalAlign=middle;whiteSpace=wrap;rounded=0;" parent="1" vertex="1">
          <mxGeometry x="170" y="1310" width="290" height="30" as="geometry" />
        </mxCell>
        <mxCell id="7xE9MWdrDau_G4mgAYLp-145" value="Blackboard files (Blackboard.py and StratefyController.py belong here too)" style="text;html=1;strokeColor=none;fillColor=none;align=center;verticalAlign=middle;whiteSpace=wrap;rounded=0;" parent="1" vertex="1">
          <mxGeometry x="170" y="1370" width="290" height="30" as="geometry" />
        </mxCell>
        <mxCell id="7xE9MWdrDau_G4mgAYLp-146" value="" style="html=1;fillColor=#E51400;strokeColor=#E51400;gradientColor=none;" parent="1" vertex="1">
          <mxGeometry x="30" y="1240" width="120" height="50" as="geometry" />
        </mxCell>
        <mxCell id="7xE9MWdrDau_G4mgAYLp-147" value="Persistence files" style="text;html=1;strokeColor=none;fillColor=none;align=center;verticalAlign=middle;whiteSpace=wrap;rounded=0;" parent="1" vertex="1">
          <mxGeometry x="179" y="1250" width="290" height="30" as="geometry" />
        </mxCell>
        <mxCell id="r-1TXs6yDEEmX1ybJRjd-1" value="" style="endArrow=open;endSize=12;dashed=1;html=1;rounded=0;entryX=0.25;entryY=0;entryDx=0;entryDy=0;" parent="1" source="7xE9MWdrDau_G4mgAYLp-11" target="7xE9MWdrDau_G4mgAYLp-44" edge="1">
          <mxGeometry width="160" relative="1" as="geometry">
            <mxPoint x="610" y="40" as="sourcePoint" />
            <mxPoint x="770" y="40" as="targetPoint" />
            <Array as="points">
              <mxPoint x="440" y="90" />
              <mxPoint x="950" y="90" />
            </Array>
          </mxGeometry>
        </mxCell>
        <mxCell id="UQzITfxUbv_3DcAMUp99-1" value="" style="endArrow=open;endSize=12;dashed=1;html=1;rounded=0;exitX=0.5;exitY=1;exitDx=0;exitDy=0;entryX=0.5;entryY=0;entryDx=0;entryDy=0;" parent="1" source="7xE9MWdrDau_G4mgAYLp-13" target="7xE9MWdrDau_G4mgAYLp-53" edge="1">
          <mxGeometry x="-0.0303" width="160" relative="1" as="geometry">
            <mxPoint x="500" y="410" as="sourcePoint" />
            <mxPoint x="660" y="410" as="targetPoint" />
            <Array as="points">
              <mxPoint x="440" y="390" />
              <mxPoint x="620" y="390" />
            </Array>
            <mxPoint as="offset" />
          </mxGeometry>
        </mxCell>
        <mxCell id="qMWy1OyVMnEH7EIRquJ9-5" style="edgeStyle=orthogonalEdgeStyle;rounded=0;orthogonalLoop=1;jettySize=auto;html=1;endSize=12;endArrow=open;endFill=0;dashed=1;" edge="1" parent="1" source="qMWy1OyVMnEH7EIRquJ9-1" target="7xE9MWdrDau_G4mgAYLp-3">
          <mxGeometry relative="1" as="geometry" />
        </mxCell>
        <mxCell id="qMWy1OyVMnEH7EIRquJ9-1" value="AdapterExplainer&lt;br&gt;DashboardManager.py" style="html=1;fillColor=#bac8d3;strokeColor=#23445d;" vertex="1" parent="1">
          <mxGeometry x="920" y="630" width="120" height="50" as="geometry" />
        </mxCell>
        <mxCell id="qMWy1OyVMnEH7EIRquJ9-4" style="edgeStyle=orthogonalEdgeStyle;rounded=0;orthogonalLoop=1;jettySize=auto;html=1;endArrow=open;endFill=0;endSize=12;dashed=1;" edge="1" parent="1" source="qMWy1OyVMnEH7EIRquJ9-2" target="qMWy1OyVMnEH7EIRquJ9-1">
          <mxGeometry relative="1" as="geometry" />
        </mxCell>
        <mxCell id="qMWy1OyVMnEH7EIRquJ9-6" style="edgeStyle=orthogonalEdgeStyle;rounded=0;orthogonalLoop=1;jettySize=auto;html=1;fillColor=#f8cecc;strokeColor=#b85450;dashed=1;endArrow=open;endFill=0;endSize=12;" edge="1" parent="1">
          <mxGeometry relative="1" as="geometry">
            <mxPoint x="830.01" y="630" as="sourcePoint" />
            <mxPoint x="800" y="370" as="targetPoint" />
            <Array as="points">
              <mxPoint x="800" y="630" />
              <mxPoint x="800" y="600" />
              <mxPoint x="880" y="600" />
              <mxPoint x="880" y="480" />
              <mxPoint x="800" y="480" />
            </Array>
          </mxGeometry>
        </mxCell>
        <mxCell id="qMWy1OyVMnEH7EIRquJ9-2" value="AdapterRuntime&lt;br&gt;ExplainerDashboard&lt;br&gt;Manager.py" style="html=1;fillColor=#bac8d3;strokeColor=#23445d;" vertex="1" parent="1">
          <mxGeometry x="740" y="630" width="120" height="50" as="geometry" />
        </mxCell>
        <mxCell id="qMWy1OyVMnEH7EIRquJ9-8" style="edgeStyle=orthogonalEdgeStyle;rounded=0;orthogonalLoop=1;jettySize=auto;html=1;fillColor=#ffe6cc;strokeColor=#C73500;dashed=1;endArrow=open;endFill=0;endSize=12;" edge="1" parent="1" source="qMWy1OyVMnEH7EIRquJ9-7" target="7xE9MWdrDau_G4mgAYLp-59">
          <mxGeometry relative="1" as="geometry">
            <Array as="points">
              <mxPoint x="700" y="1045" />
              <mxPoint x="700" y="1090" />
              <mxPoint x="980" y="1090" />
            </Array>
          </mxGeometry>
        </mxCell>
        <mxCell id="qMWy1OyVMnEH7EIRquJ9-9" style="edgeStyle=orthogonalEdgeStyle;rounded=0;orthogonalLoop=1;jettySize=auto;html=1;dashed=1;endArrow=open;endFill=0;strokeColor=#001DBC;" edge="1" parent="1" source="qMWy1OyVMnEH7EIRquJ9-7" target="7xE9MWdrDau_G4mgAYLp-58">
          <mxGeometry relative="1" as="geometry">
            <Array as="points">
              <mxPoint x="620" y="990" />
              <mxPoint x="1165" y="990" />
            </Array>
          </mxGeometry>
        </mxCell>
        <mxCell id="qMWy1OyVMnEH7EIRquJ9-10" style="edgeStyle=orthogonalEdgeStyle;rounded=0;orthogonalLoop=1;jettySize=auto;html=1;dashed=1;endArrow=open;endFill=0;endSize=12;" edge="1" parent="1" source="qMWy1OyVMnEH7EIRquJ9-7" target="7xE9MWdrDau_G4mgAYLp-64">
          <mxGeometry relative="1" as="geometry">
            <Array as="points">
              <mxPoint x="620" y="1000" />
              <mxPoint x="800" y="1000" />
            </Array>
          </mxGeometry>
        </mxCell>
        <mxCell id="qMWy1OyVMnEH7EIRquJ9-11" style="edgeStyle=orthogonalEdgeStyle;rounded=0;orthogonalLoop=1;jettySize=auto;html=1;dashed=1;endArrow=block;endFill=0;endSize=12;" edge="1" parent="1" source="qMWy1OyVMnEH7EIRquJ9-7" target="7xE9MWdrDau_G4mgAYLp-60">
          <mxGeometry relative="1" as="geometry">
            <Array as="points">
              <mxPoint x="620" y="1100" />
              <mxPoint x="800" y="1100" />
            </Array>
          </mxGeometry>
        </mxCell>
        <mxCell id="qMWy1OyVMnEH7EIRquJ9-7" value="Preprocesing&lt;br&gt;Strategy.py" style="html=1;fillColor=#ffe6cc;strokeColor=#d79b00;" vertex="1" parent="1">
          <mxGeometry x="560" y="1020" width="120" height="50" as="geometry" />
        </mxCell>
        <mxCell id="qMWy1OyVMnEH7EIRquJ9-12" value="Kubernestes&lt;br&gt;Client.py" style="html=1;fillColor=#bac8d3;strokeColor=#33FF33;" vertex="1" parent="1">
          <mxGeometry x="540" y="800" width="120" height="50" as="geometry" />
        </mxCell>
      </root>
    </mxGraphModel>
  </diagram>
</mxfile>
